<svg xmlns="http://www.w3.org/2000/svg" width="32" height="32" fill="#000000" viewBox="0 0 256 256" style="--darkreader-inline-fill: var(--darkreader-background-000000, #000000);" data-darkreader-inline-fill=""><path d="M224,120H208V72a16,16,0,0,0-16-16H152a16,16,0,0,0-16,16v48H120V48a16,16,0,0,0-16-16H64A16,16,0,0,0,48,48v72H32a8,8,0,0,0,0,16H48v72a16,16,0,0,0,16,16h40a16,16,0,0,0,16-16V136h16v48a16,16,0,0,0,16,16h40a16,16,0,0,0,16-16V136h16a8,8,0,0,0,0-16ZM104,208H64V48h40Zm88-24H152V72h40Z"></path></svg>